<svg xmlns="http://www.w3.org/2000/svg" xmlns:xlink="http://www.w3.org/1999/xlink" width="1209" zoomAndPan="magnify" viewBox="0 0 1209 1209" height="1209" preserveAspectRatio="xMidYMid meet" version="1.0"><defs><clipPath id="ef25f87e1c"><path d="M 0 98 L 1079 98 L 1079 1177.285156 L 0 1177.285156 Z M 0 98 " clip-rule="nonzero"/></clipPath><clipPath id="668c23bf92"><path d="M 949 2 L 1177.285156 2 L 1177.285156 231 L 949 231 Z M 949 2 " clip-rule="nonzero"/></clipPath><clipPath id="e44accf195"><path d="M 31.0625 120 L 1110 120 L 1110 1199.375 L 31.0625 1199.375 Z M 31.0625 120 " clip-rule="nonzero"/></clipPath><clipPath id="ef98e5e9dd"><path d="M 980 24 L 1208.347656 24 L 1208.347656 253 L 980 253 Z M 980 24 " clip-rule="nonzero"/></clipPath><clipPath id="f45ae04d48"><rect x="0" width="1209" y="0" height="1209"/></clipPath></defs><g transform="matrix(0.85, 0, 0, 0.85, 90.675, 90.675)"><g clip-path="url(#f45ae04d48)"><g clip-path="url(#ef25f87e1c)"><path fill="#6ee7b7" d="M 539.097656 98.8125 C 241.597656 98.8125 -0.4375 340.847656 -0.4375 638.347656 C -0.4375 935.847656 241.597656 1177.886719 539.097656 1177.886719 C 836.597656 1177.886719 1078.632812 935.847656 1078.632812 638.347656 C 1078.632812 340.847656 836.597656 98.8125 539.097656 98.8125 Z M 539.097656 1059.589844 C 306.828125 1059.589844 117.859375 870.617188 117.859375 638.347656 C 117.859375 406.082031 306.828125 217.109375 539.097656 217.109375 C 771.367188 217.109375 960.335938 406.082031 960.335938 638.347656 C 960.335938 870.617188 771.367188 1059.589844 539.097656 1059.589844 Z M 539.097656 1059.589844 " fill-opacity="1" fill-rule="nonzero"/></g><path fill="#6ee7b7" d="M 539.097656 359.421875 C 532.457031 359.421875 525.933594 359.960938 519.410156 360.417969 C 551.46875 385.546875 572.152344 424.535156 572.152344 468.441406 C 572.152344 544.269531 510.6875 605.730469 434.859375 605.730469 C 368.125 605.730469 312.542969 558.09375 300.1875 494.957031 C 274.957031 536.898438 260.167969 585.839844 260.167969 638.347656 C 260.167969 792.386719 385.058594 917.277344 539.097656 917.277344 C 693.136719 917.277344 818.023438 792.386719 818.023438 638.347656 C 818.023438 484.308594 693.136719 359.421875 539.097656 359.421875 Z M 539.097656 359.421875 " fill-opacity="1" fill-rule="nonzero"/><g clip-path="url(#668c23bf92)"><path fill="none" d="M 1177.039062 116.539062 C 1177.039062 118.40625 1176.996094 120.269531 1176.902344 122.132812 C 1176.8125 123.996094 1176.675781 125.855469 1176.492188 127.714844 C 1176.308594 129.570312 1176.078125 131.421875 1175.804688 133.265625 C 1175.53125 135.113281 1175.214844 136.949219 1174.847656 138.78125 C 1174.484375 140.609375 1174.078125 142.429688 1173.625 144.242188 C 1173.171875 146.050781 1172.671875 147.847656 1172.132812 149.632812 C 1171.589844 151.417969 1171.003906 153.191406 1170.375 154.945312 C 1169.746094 156.703125 1169.074219 158.445312 1168.363281 160.167969 C 1167.648438 161.890625 1166.890625 163.597656 1166.09375 165.28125 C 1165.296875 166.96875 1164.457031 168.636719 1163.578125 170.28125 C 1162.699219 171.925781 1161.78125 173.550781 1160.820312 175.148438 C 1159.863281 176.75 1158.863281 178.324219 1157.828125 179.878906 C 1156.789062 181.429688 1155.714844 182.953125 1154.605469 184.453125 C 1153.492188 185.949219 1152.347656 187.421875 1151.164062 188.863281 C 1149.980469 190.304688 1148.761719 191.71875 1147.507812 193.101562 C 1146.253906 194.484375 1144.96875 195.832031 1143.648438 197.152344 C 1142.328125 198.472656 1140.980469 199.757812 1139.597656 201.011719 C 1138.214844 202.265625 1136.800781 203.484375 1135.359375 204.667969 C 1133.917969 205.851562 1132.445312 206.996094 1130.949219 208.109375 C 1129.449219 209.21875 1127.925781 210.292969 1126.371094 211.332031 C 1124.820312 212.367188 1123.246094 213.367188 1121.644531 214.324219 C 1120.046875 215.285156 1118.421875 216.203125 1116.777344 217.082031 C 1115.132812 217.960938 1113.464844 218.800781 1111.777344 219.597656 C 1110.09375 220.394531 1108.386719 221.152344 1106.664062 221.867188 C 1104.9375 222.582031 1103.199219 223.25 1101.441406 223.878906 C 1099.6875 224.507812 1097.914062 225.09375 1096.128906 225.636719 C 1094.34375 226.175781 1092.546875 226.675781 1090.738281 227.128906 C 1088.925781 227.582031 1087.105469 227.988281 1085.277344 228.355469 C 1083.445312 228.71875 1081.609375 229.035156 1079.761719 229.308594 C 1077.917969 229.585938 1076.066406 229.8125 1074.210938 229.996094 C 1072.351562 230.179688 1070.492188 230.316406 1068.628906 230.40625 C 1066.765625 230.5 1064.902344 230.542969 1063.035156 230.542969 C 1061.167969 230.542969 1059.304688 230.5 1057.441406 230.40625 C 1055.578125 230.316406 1053.71875 230.179688 1051.859375 229.996094 C 1050.003906 229.8125 1048.152344 229.585938 1046.308594 229.308594 C 1044.460938 229.035156 1042.625 228.71875 1040.792969 228.355469 C 1038.964844 227.988281 1037.144531 227.582031 1035.335938 227.128906 C 1033.523438 226.675781 1031.726562 226.175781 1029.941406 225.636719 C 1028.15625 225.09375 1026.386719 224.507812 1024.628906 223.878906 C 1022.871094 223.25 1021.132812 222.582031 1019.40625 221.867188 C 1017.683594 221.152344 1015.980469 220.394531 1014.292969 219.597656 C 1012.605469 218.800781 1010.941406 217.960938 1009.292969 217.082031 C 1007.648438 216.203125 1006.027344 215.285156 1004.425781 214.324219 C 1002.824219 213.367188 1001.25 212.367188 999.699219 211.332031 C 998.144531 210.292969 996.621094 209.21875 995.121094 208.109375 C 993.625 206.996094 992.152344 205.851562 990.710938 204.667969 C 989.269531 203.484375 987.855469 202.265625 986.476562 201.011719 C 985.09375 199.757812 983.742188 198.472656 982.421875 197.152344 C 981.101562 195.832031 979.816406 194.484375 978.5625 193.101562 C 977.308594 191.71875 976.09375 190.304688 974.910156 188.863281 C 973.726562 187.421875 972.578125 185.949219 971.464844 184.453125 C 970.355469 182.953125 969.28125 181.429688 968.242188 179.878906 C 967.207031 178.324219 966.210938 176.75 965.25 175.148438 C 964.292969 173.550781 963.371094 171.925781 962.492188 170.28125 C 961.613281 168.636719 960.773438 166.96875 959.976562 165.28125 C 959.179688 163.597656 958.421875 161.890625 957.707031 160.167969 C 956.996094 158.445312 956.324219 156.703125 955.695312 154.945312 C 955.066406 153.191406 954.480469 151.417969 953.941406 149.632812 C 953.398438 147.847656 952.902344 146.050781 952.449219 144.242188 C 951.992188 142.429688 951.585938 140.609375 951.222656 138.78125 C 950.855469 136.949219 950.539062 135.113281 950.265625 133.265625 C 949.992188 131.421875 949.761719 129.570312 949.578125 127.714844 C 949.398438 125.855469 949.257812 123.996094 949.167969 122.132812 C 949.078125 120.269531 949.03125 118.40625 949.03125 116.539062 C 949.03125 114.675781 949.078125 112.808594 949.167969 110.945312 C 949.257812 109.082031 949.398438 107.222656 949.578125 105.363281 C 949.761719 103.507812 949.992188 101.65625 950.265625 99.8125 C 950.539062 97.964844 950.859375 96.128906 951.222656 94.296875 C 951.585938 92.46875 951.992188 90.648438 952.449219 88.839844 C 952.902344 87.027344 953.398438 85.230469 953.941406 83.445312 C 954.480469 81.660156 955.066406 79.890625 955.695312 78.132812 C 956.324219 76.375 956.996094 74.636719 957.707031 72.910156 C 958.421875 71.1875 959.179688 69.484375 959.976562 67.796875 C 960.773438 66.109375 961.613281 64.445312 962.492188 62.796875 C 963.371094 61.152344 964.292969 59.53125 965.25 57.929688 C 966.210938 56.328125 967.207031 54.753906 968.242188 53.203125 C 969.28125 51.652344 970.355469 50.125 971.464844 48.628906 C 972.578125 47.128906 973.726562 45.65625 974.910156 44.214844 C 976.09375 42.773438 977.308594 41.359375 978.5625 39.980469 C 979.816406 38.597656 981.101562 37.246094 982.421875 35.925781 C 983.742188 34.605469 985.09375 33.320312 986.476562 32.066406 C 987.855469 30.816406 989.269531 29.597656 990.710938 28.414062 C 992.152344 27.230469 993.625 26.082031 995.121094 24.96875 C 996.621094 23.859375 998.144531 22.785156 999.699219 21.75 C 1001.25 20.710938 1002.824219 19.714844 1004.425781 18.753906 C 1006.027344 17.796875 1007.648438 16.875 1009.292969 15.996094 C 1010.941406 15.117188 1012.605469 14.277344 1014.292969 13.480469 C 1015.980469 12.683594 1017.683594 11.925781 1019.40625 11.214844 C 1021.132812 10.5 1022.871094 9.828125 1024.628906 9.199219 C 1026.386719 8.570312 1028.15625 7.984375 1029.941406 7.445312 C 1031.726562 6.902344 1033.523438 6.40625 1035.335938 5.953125 C 1037.144531 5.5 1038.964844 5.089844 1040.792969 4.726562 C 1042.625 4.363281 1044.460938 4.042969 1046.308594 3.769531 C 1048.152344 3.496094 1050.003906 3.265625 1051.859375 3.082031 C 1053.71875 2.902344 1055.578125 2.765625 1057.441406 2.671875 C 1059.304688 2.582031 1061.167969 2.535156 1063.035156 2.535156 C 1064.902344 2.535156 1066.765625 2.582031 1068.628906 2.671875 C 1070.492188 2.765625 1072.351562 2.902344 1074.210938 3.082031 C 1076.066406 3.265625 1077.917969 3.496094 1079.761719 3.769531 C 1081.609375 4.042969 1083.445312 4.363281 1085.277344 4.726562 C 1087.105469 5.089844 1088.925781 5.5 1090.738281 5.953125 C 1092.546875 6.40625 1094.34375 6.902344 1096.128906 7.445312 C 1097.914062 7.984375 1099.6875 8.570312 1101.441406 9.199219 C 1103.199219 9.828125 1104.9375 10.5 1106.664062 11.214844 C 1108.386719 11.925781 1110.09375 12.683594 1111.777344 13.480469 C 1113.464844 14.277344 1115.132812 15.117188 1116.777344 15.996094 C 1118.421875 16.875 1120.046875 17.796875 1121.644531 18.753906 C 1123.246094 19.714844 1124.820312 20.710938 1126.371094 21.75 C 1127.925781 22.785156 1129.449219 23.859375 1130.949219 24.96875 C 1132.445312 26.082031 1133.917969 27.230469 1135.359375 28.414062 C 1136.800781 29.597656 1138.214844 30.816406 1139.597656 32.066406 C 1140.980469 33.320312 1142.328125 34.605469 1143.648438 35.925781 C 1144.96875 37.246094 1146.253906 38.597656 1147.507812 39.980469 C 1148.761719 41.359375 1149.980469 42.773438 1151.164062 44.214844 C 1152.347656 45.65625 1153.492188 47.128906 1154.605469 48.628906 C 1155.714844 50.125 1156.789062 51.652344 1157.828125 53.203125 C 1158.863281 54.753906 1159.859375 56.328125 1160.820312 57.929688 C 1161.78125 59.53125 1162.699219 61.152344 1163.578125 62.796875 C 1164.457031 64.445312 1165.296875 66.109375 1166.09375 67.796875 C 1166.890625 69.484375 1167.648438 71.1875 1168.363281 72.910156 C 1169.074219 74.636719 1169.746094 76.375 1170.375 78.132812 C 1171.003906 79.890625 1171.589844 81.660156 1172.132812 83.445312 C 1172.671875 85.230469 1173.171875 87.027344 1173.625 88.839844 C 1174.078125 90.648438 1174.484375 92.46875 1174.847656 94.296875 C 1175.214844 96.128906 1175.53125 97.964844 1175.804688 99.8125 C 1176.078125 101.65625 1176.308594 103.507812 1176.492188 105.363281 C 1176.675781 107.222656 1176.8125 109.082031 1176.902344 110.945312 C 1176.996094 112.808594 1177.039062 114.675781 1177.039062 116.539062 Z M 1177.039062 116.539062 " fill-opacity="1" fill-rule="nonzero"/></g><g clip-path="url(#e44accf195)"><path fill="none" d="M 570.160156 120.902344 C 272.660156 120.902344 30.625 362.9375 30.625 660.4375 C 30.625 957.9375 272.660156 1199.976562 570.160156 1199.976562 C 867.660156 1199.976562 1109.695312 957.9375 1109.695312 660.4375 C 1109.695312 362.9375 867.660156 120.902344 570.160156 120.902344 Z M 570.160156 1081.679688 C 337.890625 1081.679688 148.921875 892.707031 148.921875 660.4375 C 148.921875 428.171875 337.890625 239.199219 570.160156 239.199219 C 802.429688 239.199219 991.398438 428.171875 991.398438 660.4375 C 991.398438 892.707031 802.429688 1081.679688 570.160156 1081.679688 Z M 570.160156 1081.679688 " fill-opacity="1" fill-rule="nonzero"/></g><path fill="none" d="M 570.160156 381.511719 C 563.519531 381.511719 556.996094 382.050781 550.472656 382.507812 C 582.53125 407.636719 603.214844 446.625 603.214844 490.53125 C 603.214844 566.359375 541.753906 627.820312 465.921875 627.820312 C 399.1875 627.820312 343.605469 580.183594 331.25 517.046875 C 306.019531 558.988281 291.230469 607.929688 291.230469 660.4375 C 291.230469 814.476562 416.121094 939.367188 570.160156 939.367188 C 724.199219 939.367188 849.089844 814.476562 849.089844 660.4375 C 849.089844 506.398438 724.199219 381.511719 570.160156 381.511719 Z M 570.160156 381.511719 " fill-opacity="1" fill-rule="nonzero"/><g clip-path="url(#ef98e5e9dd)"><path fill="#6ee7b7" d="M 1208.101562 138.628906 C 1208.101562 140.496094 1208.058594 142.359375 1207.964844 144.222656 C 1207.875 146.085938 1207.738281 147.945312 1207.554688 149.804688 C 1207.371094 151.660156 1207.144531 153.511719 1206.867188 155.355469 C 1206.59375 157.203125 1206.277344 159.039062 1205.914062 160.871094 C 1205.546875 162.699219 1205.140625 164.519531 1204.6875 166.332031 C 1204.234375 168.140625 1203.734375 169.9375 1203.195312 171.722656 C 1202.652344 173.507812 1202.066406 175.28125 1201.4375 177.035156 C 1200.808594 178.792969 1200.140625 180.535156 1199.425781 182.257812 C 1198.710938 183.980469 1197.957031 185.6875 1197.15625 187.371094 C 1196.359375 189.058594 1195.519531 190.726562 1194.640625 192.371094 C 1193.761719 194.015625 1192.84375 195.640625 1191.882812 197.238281 C 1190.925781 198.839844 1189.925781 200.414062 1188.890625 201.96875 C 1187.851562 203.519531 1186.78125 205.042969 1185.667969 206.542969 C 1184.554688 208.039062 1183.410156 209.511719 1182.226562 210.953125 C 1181.042969 212.394531 1179.824219 213.808594 1178.570312 215.191406 C 1177.316406 216.574219 1176.03125 217.921875 1174.710938 219.242188 C 1173.390625 220.5625 1172.042969 221.847656 1170.660156 223.101562 C 1169.277344 224.355469 1167.863281 225.574219 1166.421875 226.757812 C 1164.980469 227.941406 1163.507812 229.085938 1162.011719 230.199219 C 1160.511719 231.308594 1158.988281 232.382812 1157.4375 233.421875 C 1155.882812 234.457031 1154.308594 235.457031 1152.707031 236.414062 C 1151.109375 237.375 1149.484375 238.292969 1147.839844 239.171875 C 1146.195312 240.050781 1144.527344 240.890625 1142.839844 241.6875 C 1141.15625 242.484375 1139.449219 243.242188 1137.726562 243.957031 C 1136.003906 244.671875 1134.261719 245.339844 1132.503906 245.96875 C 1130.75 246.597656 1128.976562 247.183594 1127.191406 247.726562 C 1125.40625 248.265625 1123.609375 248.765625 1121.800781 249.21875 C 1119.988281 249.671875 1118.167969 250.078125 1116.339844 250.445312 C 1114.507812 250.808594 1112.671875 251.125 1110.828125 251.398438 C 1108.980469 251.675781 1107.128906 251.902344 1105.273438 252.085938 C 1103.417969 252.269531 1101.554688 252.40625 1099.691406 252.496094 C 1097.828125 252.589844 1095.964844 252.632812 1094.097656 252.632812 C 1092.234375 252.632812 1090.367188 252.589844 1088.503906 252.496094 C 1086.640625 252.40625 1084.78125 252.269531 1082.925781 252.085938 C 1081.066406 251.902344 1079.214844 251.675781 1077.371094 251.398438 C 1075.523438 251.125 1073.6875 250.808594 1071.855469 250.445312 C 1070.027344 250.078125 1068.207031 249.671875 1066.398438 249.21875 C 1064.585938 248.765625 1062.789062 248.265625 1061.003906 247.726562 C 1059.21875 247.183594 1057.449219 246.597656 1055.691406 245.96875 C 1053.933594 245.339844 1052.195312 244.671875 1050.472656 243.957031 C 1048.746094 243.242188 1047.042969 242.484375 1045.355469 241.6875 C 1043.667969 240.890625 1042.003906 240.050781 1040.355469 239.171875 C 1038.710938 238.292969 1037.089844 237.375 1035.488281 236.414062 C 1033.886719 235.457031 1032.3125 234.457031 1030.761719 233.421875 C 1029.210938 232.382812 1027.683594 231.308594 1026.1875 230.199219 C 1024.6875 229.085938 1023.21875 227.941406 1021.773438 226.757812 C 1020.332031 225.574219 1018.921875 224.355469 1017.539062 223.101562 C 1016.15625 221.847656 1014.804688 220.5625 1013.484375 219.242188 C 1012.164062 217.921875 1010.878906 216.574219 1009.625 215.191406 C 1008.375 213.808594 1007.15625 212.394531 1005.972656 210.953125 C 1004.789062 209.511719 1003.640625 208.039062 1002.527344 206.542969 C 1001.417969 205.042969 1000.34375 203.519531 999.308594 201.96875 C 998.269531 200.414062 997.273438 198.839844 996.3125 197.238281 C 995.355469 195.640625 994.433594 194.015625 993.554688 192.371094 C 992.675781 190.726562 991.835938 189.058594 991.039062 187.371094 C 990.242188 185.6875 989.484375 183.980469 988.773438 182.257812 C 988.058594 180.535156 987.386719 178.792969 986.757812 177.035156 C 986.128906 175.28125 985.542969 173.507812 985.003906 171.722656 C 984.460938 169.9375 983.964844 168.140625 983.511719 166.332031 C 983.058594 164.519531 982.648438 162.699219 982.285156 160.871094 C 981.921875 159.039062 981.601562 157.203125 981.328125 155.355469 C 981.054688 153.511719 980.824219 151.660156 980.644531 149.804688 C 980.460938 147.945312 980.324219 146.085938 980.230469 144.222656 C 980.140625 142.359375 980.09375 140.496094 980.09375 138.628906 C 980.09375 136.761719 980.140625 134.898438 980.230469 133.035156 C 980.324219 131.171875 980.460938 129.3125 980.644531 127.453125 C 980.824219 125.597656 981.054688 123.746094 981.328125 121.902344 C 981.601562 120.054688 981.921875 118.21875 982.285156 116.386719 C 982.648438 114.558594 983.058594 112.738281 983.511719 110.929688 C 983.964844 109.117188 984.460938 107.320312 985.003906 105.535156 C 985.542969 103.75 986.128906 101.980469 986.757812 100.222656 C 987.386719 98.464844 988.058594 96.726562 988.773438 95 C 989.484375 93.277344 990.242188 91.574219 991.039062 89.886719 C 991.835938 88.199219 992.675781 86.535156 993.554688 84.886719 C 994.433594 83.242188 995.355469 81.621094 996.3125 80.019531 C 997.273438 78.417969 998.269531 76.84375 999.308594 75.292969 C 1000.34375 73.742188 1001.417969 72.214844 1002.527344 70.71875 C 1003.640625 69.21875 1004.789062 67.746094 1005.972656 66.304688 C 1007.15625 64.863281 1008.375 63.449219 1009.625 62.070312 C 1010.878906 60.6875 1012.164062 59.335938 1013.484375 58.015625 C 1014.804688 56.695312 1016.15625 55.410156 1017.539062 54.15625 C 1018.921875 52.90625 1020.332031 51.6875 1021.773438 50.503906 C 1023.21875 49.320312 1024.6875 48.171875 1026.1875 47.058594 C 1027.683594 45.949219 1029.210938 44.875 1030.761719 43.839844 C 1032.3125 42.800781 1033.886719 41.804688 1035.488281 40.84375 C 1037.089844 39.886719 1038.710938 38.964844 1040.355469 38.085938 C 1042.003906 37.207031 1043.667969 36.367188 1045.355469 35.570312 C 1047.042969 34.773438 1048.746094 34.015625 1050.472656 33.304688 C 1052.195312 32.589844 1053.933594 31.917969 1055.691406 31.289062 C 1057.449219 30.660156 1059.21875 30.074219 1061.003906 29.535156 C 1062.789062 28.992188 1064.585938 28.496094 1066.398438 28.042969 C 1068.207031 27.589844 1070.027344 27.179688 1071.855469 26.816406 C 1073.6875 26.453125 1075.523438 26.132812 1077.371094 25.859375 C 1079.214844 25.585938 1081.066406 25.355469 1082.925781 25.171875 C 1084.78125 24.992188 1086.640625 24.855469 1088.503906 24.761719 C 1090.367188 24.671875 1092.234375 24.625 1094.097656 24.625 C 1095.964844 24.625 1097.828125 24.671875 1099.691406 24.761719 C 1101.554688 24.855469 1103.417969 24.992188 1105.273438 25.171875 C 1107.128906 25.355469 1108.980469 25.585938 1110.828125 25.859375 C 1112.671875 26.132812 1114.507812 26.453125 1116.339844 26.816406 C 1118.167969 27.179688 1119.988281 27.589844 1121.800781 28.042969 C 1123.609375 28.496094 1125.40625 28.992188 1127.191406 29.535156 C 1128.976562 30.074219 1130.75 30.660156 1132.503906 31.289062 C 1134.261719 31.917969 1136.003906 32.589844 1137.726562 33.304688 C 1139.449219 34.015625 1141.15625 34.773438 1142.839844 35.570312 C 1144.527344 36.367188 1146.195312 37.207031 1147.839844 38.085938 C 1149.484375 38.964844 1151.109375 39.886719 1152.707031 40.84375 C 1154.308594 41.804688 1155.882812 42.800781 1157.4375 43.839844 C 1158.988281 44.875 1160.511719 45.949219 1162.011719 47.058594 C 1163.507812 48.171875 1164.980469 49.320312 1166.421875 50.503906 C 1167.863281 51.6875 1169.277344 52.90625 1170.660156 54.15625 C 1172.042969 55.410156 1173.390625 56.695312 1174.710938 58.015625 C 1176.03125 59.335938 1177.316406 60.6875 1178.570312 62.070312 C 1179.824219 63.449219 1181.042969 64.863281 1182.226562 66.304688 C 1183.410156 67.746094 1184.554688 69.21875 1185.667969 70.71875 C 1186.777344 72.214844 1187.851562 73.742188 1188.890625 75.292969 C 1189.925781 76.84375 1190.925781 78.417969 1191.882812 80.019531 C 1192.84375 81.621094 1193.761719 83.242188 1194.640625 84.886719 C 1195.519531 86.535156 1196.359375 88.199219 1197.15625 89.886719 C 1197.957031 91.574219 1198.710938 93.277344 1199.425781 95 C 1200.140625 96.726562 1200.808594 98.464844 1201.4375 100.222656 C 1202.066406 101.980469 1202.652344 103.75 1203.195312 105.535156 C 1203.734375 107.320312 1204.234375 109.117188 1204.6875 110.929688 C 1205.140625 112.738281 1205.546875 114.558594 1205.914062 116.386719 C 1206.277344 118.21875 1206.59375 120.054688 1206.871094 121.902344 C 1207.144531 123.746094 1207.371094 125.597656 1207.554688 127.453125 C 1207.738281 129.3125 1207.875 131.171875 1207.964844 133.035156 C 1208.058594 134.898438 1208.101562 136.761719 1208.101562 138.628906 Z M 1208.101562 138.628906 " fill-opacity="1" fill-rule="nonzero"/></g></g></g></svg>